<svg width="50" height="51" viewBox="0 0 50 51" fill="none" xmlns="http://www.w3.org/2000/svg">
<g clip-path="url(#clip0_105_1555)">
<path d="M0 25.5C0 28.6192 0.550098 31.607 1.55498 34.3695L25 35.4783L48.445 34.3696C49.45 31.607 50 28.6192 50 25.5C50 22.3808 49.45 19.3929 48.445 16.6305L25 15.5217L1.55498 16.6304C0.550098 19.3929 0 22.3808 0 25.5H0Z" fill="#FFDA44"/>
<path d="M25.0002 0C14.2511 0 5.0875 6.92006 1.55518 16.6305H48.4453C44.9129 6.92006 35.7493 0 25.0002 0V0Z" fill="#D80027"/>
<path d="M48.4452 34.3696H1.55518C5.0875 44.0799 14.2511 51.0001 25.0002 51.0001C35.7493 51.0001 44.9129 44.0799 48.4452 34.3696Z" fill="#496E2D"/>
<path d="M24.9999 16.6304L27.1581 23.4058H34.1433L28.4926 27.5937L30.6508 34.3694L24.9999 30.1818L19.349 34.3694L21.5076 27.5937L15.8569 23.4058H22.8417L24.9999 16.6304Z" fill="black"/>
</g>
<defs>
<clipPath id="clip0_105_1555">
<rect width="50" height="51" fill="white"/>
</clipPath>
</defs>
</svg>
